<svg width="586" height="183" viewBox="0 0 586 183" fill="none" xmlns="http://www.w3.org/2000/svg">
<path fill-rule="evenodd" clip-rule="evenodd" d="M474.684 0.0219645C466.503 -0.313073 459.784 3.21447 454.865 8.57113C450.206 13.6454 447.118 20.3393 445.024 27.2255C440.82 41.0499 439.682 58.8188 440.627 75.9269C441.012 82.8872 441.752 89.9155 442.83 96.7207C439.568 116.375 391.205 153.183 369.345 118.171C380.008 113.256 389.917 108.597 399.841 103.932C409.371 99.4519 418.913 94.9657 429.149 90.24C419.549 61.3091 394.213 47.7238 366.995 60.29C350.95 67.6975 341.356 82.3035 341.206 100.319C341.191 108.425 342.947 116.317 346.474 123.997C366.896 165.555 427.988 156.791 449.132 122.732C453.55 135.367 461.893 152.004 477.423 152.004C499.029 152.004 507.762 122.98 512.724 106.488L512.792 106.261C514.592 116.993 520.152 134.518 531.362 148.766C529.589 154.217 529.322 154.925 528.918 155.992C527.713 159.176 526.235 161.207 524.483 162.086C522.84 163.074 520.377 163.568 517.091 163.568H507.072V182.343H522.348C529.903 182.343 535.707 180.642 539.759 177.238C543.92 173.944 547.424 168.18 550.272 159.945L586 55.3907H562.183C556.594 71.7365 550.305 91.492 544.601 109.408C542.985 114.484 541.416 119.413 539.923 124.075C531.482 114.756 528.028 90.0255 524.613 65.5702C524.136 62.1543 523.66 58.7438 523.171 55.3814H502.453C502.453 55.3814 496.196 132.775 477.472 132.775C471.774 132.775 466.511 109.328 464.796 101.086C466.844 97.7222 468.771 94.3138 470.577 90.8999C480.451 72.2345 487.192 52.4143 489.82 36.7905C491.109 29.1273 491.566 21.5882 490.361 15.4463C489.757 12.3707 488.577 8.79728 486.106 5.77119C483.364 2.41289 479.391 0.214693 474.684 0.0219645ZM468.518 47.6118C463.329 66.9742 459.074 72.484 459.074 72.484C459.074 72.484 457.397 62.8336 460.663 44.4259C463.461 28.6523 470.725 21.5047 470.725 21.5047C470.725 21.5047 472.005 34.6025 468.518 47.6118ZM362.967 102.421L404.743 83.1331C401.183 77.386 394.231 73.7905 387.555 73.6623C383.739 73.4902 379.941 74.2766 376.161 76.0217C372.381 77.7668 369.293 80.0991 366.896 83.0187C364.599 85.8923 363.193 89.2614 362.677 93.126C361.894 96.1467 361.991 99.2449 362.967 102.421Z" fill="#2F113D"/>
<path fill-rule="evenodd" clip-rule="evenodd" d="M0 152.004V27.1016H53.454C65.5853 27.1016 75.1713 30.1481 82.2119 36.2412C89.2524 42.2255 92.7727 51.4196 92.7727 63.8234C92.7727 71.6573 91.0938 78.4577 87.736 84.2244C84.4865 89.8822 79.8831 94.2344 73.9257 97.281C68.0766 100.328 61.2527 101.851 53.454 101.851H23.3963V152.004H0ZM50.2045 81.2866C56.4868 81.2866 61.2527 79.8721 64.5022 77.0432C67.86 74.2143 69.5389 70.0797 69.5389 64.6394C69.5389 59.3079 67.86 55.2277 64.5022 52.3988C61.1444 49.5699 56.3785 48.1554 50.2045 48.1554H23.3963V81.2866H50.2045Z" fill="#2F113D"/>
<path d="M98.1358 152.004V55.3814H120.07V68.2749C123.428 63.5962 127.164 60.2777 131.28 58.3192C135.505 56.3607 140.433 55.3814 146.066 55.3814H148.665V76.5985H143.629C136.696 76.5985 131.28 78.4482 127.381 82.1476C124.89 84.6501 123.048 87.8598 121.857 91.7768C120.666 95.585 120.07 100.481 120.07 106.466V152.004H98.1358Z" fill="#2F113D"/>
<path fill-rule="evenodd" clip-rule="evenodd" d="M170.082 145.483C177.123 149.509 185.192 151.521 194.291 151.521C203.498 151.521 211.621 149.509 218.662 145.483C225.811 141.457 231.335 135.799 235.234 128.509C239.134 121.219 241.083 112.841 241.083 103.375C241.083 94.2354 239.079 86.1294 235.072 79.0571C231.172 71.8759 225.648 66.2724 218.499 62.2466C211.459 58.2208 203.389 56.2079 194.291 56.2079C185.192 56.2079 177.123 58.2208 170.082 62.2466C163.042 66.1636 157.518 71.7127 153.51 78.8938C149.61 86.075 147.661 94.2354 147.661 103.375C147.661 112.841 149.61 121.219 153.51 128.509C157.518 135.799 163.042 141.457 170.082 145.483ZM211.676 124.429C207.235 129.869 201.44 132.589 194.291 132.589C187.142 132.589 181.293 129.924 176.744 124.592C172.303 119.152 170.082 112.079 170.082 103.375C170.082 97.9348 171.111 93.0929 173.169 88.8495C175.227 84.4973 178.098 81.1244 181.78 78.7306C185.463 76.3369 189.633 75.1401 194.291 75.1401C201.44 75.1401 207.235 77.8058 211.676 83.1372C216.116 88.3599 218.337 95.1058 218.337 103.375C218.337 111.971 216.116 118.989 211.676 124.429Z" fill="#2F113D"/>
<path fill-rule="evenodd" clip-rule="evenodd" d="M296.382 55.447C304.289 55.447 311.275 57.4599 317.341 61.4857C323.407 65.5115 328.119 71.1694 331.476 78.4594C334.834 85.6405 336.513 93.8553 336.513 103.104C336.513 112.352 334.834 121.851 331.476 129.141C328.119 136.322 323.407 141.926 317.341 145.952C311.275 149.978 304.289 151.99 296.382 151.99C290.749 151.99 285.875 151.011 281.759 149.053C277.752 146.985 274.015 143.449 270.549 138.444V183H248.615V55.447H270.549V68.8301C274.123 63.825 277.914 60.3433 281.922 58.3848C285.929 56.4263 290.749 55.447 296.382 55.447ZM291.345 74.3792C284.413 74.3792 278.726 77.0449 274.285 82.3763C269.953 87.7078 267.786 94.617 267.786 103.104C267.786 111.897 269.953 119.73 274.285 125.061C278.726 130.393 284.413 133.058 291.345 133.058C298.277 133.058 303.856 130.393 308.08 125.061C312.304 119.621 314.417 111.788 314.417 103.104C314.417 94.7258 312.304 87.871 308.08 82.5396C303.856 77.0993 298.277 74.3792 291.345 74.3792Z" fill="#2F113D"/>
</svg>
